<?xml version="1.0" encoding="UTF-8"?><!DOCTYPE svg PUBLIC "-//W3C//DTD SVG 1.1//EN" "http://www.w3.org/Graphics/SVG/1.1/DTD/svg11.dtd"><svg xmlns="http://www.w3.org/2000/svg" xmlns:xlink="http://www.w3.org/1999/xlink"><defs>
<clipPath id="clip0_2003_2866">
<rect width="16" height="16" fill="currentColor"/>
</clipPath>
</defs><symbol id="calendar" viewBox="0 0 14 14"><g fill="none">
<path fill-rule="evenodd" clip-rule="evenodd" d="M4.33301 3.00016H2.99967V2.3335H1.66634V4.3335H12.333V2.3335H10.9997V3.00016H9.66634V2.3335H4.33301V3.00016ZM12.333 5.66683H1.66634V12.3335H12.333V5.66683ZM9.66634 1.00016H4.33301V0.333496H2.99967V1.00016H1.66634C0.929961 1.00016 0.333008 1.59712 0.333008 2.3335V12.3335C0.333008 13.0699 0.929961 13.6668 1.66634 13.6668H12.333C13.0694 13.6668 13.6663 13.0699 13.6663 12.3335V2.3335C13.6663 1.59712 13.0694 1.00016 12.333 1.00016H10.9997V0.333496H9.66634V1.00016ZM4.99967 8.3335H3.66634V7.00016H4.99967V8.3335ZM6.33301 8.3335H7.66634V7.00016H6.33301V8.3335ZM8.99967 8.3335V7.00016H10.333V8.3335H8.99967ZM3.66634 11.0002H4.99967V9.66683H3.66634V11.0002ZM7.66634 11.0002H6.33301V9.66683H7.66634V11.0002Z" fill="#D13980"/>
</g></symbol><symbol id="close" viewBox="0 0 24 24"><g fill="none">
<path fill-rule="evenodd" clip-rule="evenodd" d="M11.9996 10.5858L18.3635 4.22183L19.7777 5.63604L13.4138 12L19.7777 18.364L18.3635 19.7782L11.9996 13.4142L5.6356 19.7782L4.22138 18.364L10.5853 12L4.22138 5.63604L5.6356 4.22183L11.9996 10.5858Z" fill="#D2D4D8"/>
</g></symbol><symbol id="completed-btn" viewBox="0 0 16 16"><g fill="none">
<path fill-rule="evenodd" clip-rule="evenodd" d="M8.00033 15.3332C3.95024 15.3332 0.666992 12.0499 0.666992 7.99984C0.666992 3.94975 3.95024 0.666504 8.00033 0.666504C12.0504 0.666504 15.3337 3.94975 15.3337 7.99984C15.3337 12.0499 12.0504 15.3332 8.00033 15.3332ZM8.00033 13.9998C11.314 13.9998 14.0003 11.3135 14.0003 7.99984C14.0003 4.68613 11.314 1.99984 8.00033 1.99984C4.68662 1.99984 2.00033 4.68613 2.00033 7.99984C2.00033 11.3135 4.68662 13.9998 8.00033 13.9998ZM10.1956 5.52843L6.66699 9.05703L5.1384 7.52843L4.19559 8.47124L6.66699 10.9426L11.1384 6.47124L10.1956 5.52843Z" fill="currentColor"/>
</g></symbol><symbol id="edit-btn" viewBox="0 0 16 16"><g fill="none">
<path fill-rule="evenodd" clip-rule="evenodd" d="M14.6663 13.3335V8.66683H13.333V13.3335H2.66634V2.66683H7.33301V1.3335H2.66634C1.92996 1.3335 1.33301 1.93045 1.33301 2.66683V13.3335C1.33301 14.0699 1.92996 14.6668 2.66634 14.6668H13.333C14.0694 14.6668 14.6663 14.0699 14.6663 13.3335ZM12.7851 1.81578C12.4795 1.50778 12.0611 1.3335 11.6246 1.3335C11.1886 1.3335 10.7706 1.50738 10.4633 1.81658L4.88401 7.39578C4.38545 7.83505 4.05863 8.48872 4.00184 9.1917L3.99967 11.335V12.0017H6.75607C7.51227 11.9499 8.17236 11.6198 8.63801 11.0827L14.1857 5.53739C14.4935 5.2296 14.6664 4.81216 14.6664 4.37688C14.6664 3.94161 14.4935 3.52416 14.1857 3.21638L12.7851 1.81578ZM6.709 10.67C7.06515 10.6448 7.39667 10.4791 7.66287 10.1746L11.7041 6.13331L9.86795 4.29701L5.79708 8.36656C5.52698 8.60544 5.35988 8.93965 5.33301 9.24538V10.6688L6.709 10.67ZM10.8109 3.35435L12.6469 5.1905L13.2429 4.59458C13.3006 4.53684 13.333 4.45853 13.333 4.37688C13.333 4.29523 13.3006 4.21692 13.2429 4.15919L11.8404 2.75673C11.7833 2.69919 11.7056 2.66683 11.6246 2.66683C11.5435 2.66683 11.4658 2.69919 11.4087 2.75673L10.8109 3.35435Z" fill="#2E2E54"/>
</g></symbol><symbol id="exit" viewBox="0 0 16 16"><g fill="none">
<path fill-rule="evenodd" clip-rule="evenodd" d="M5.19521 7.33333L12.2524 7.33333L10.0571 5.13807L10.9999 4.19526L14.8047 8L10.9999 11.8047L10.0571 10.8619L12.2524 8.66667H5.19521V7.33333ZM2.52855 2L8.52855 2V3.33333L2.52855 3.33333V12.6667L8.52855 12.6667V14L2.52855 14C1.79217 14 1.19521 13.403 1.19521 12.6667V3.33333C1.19521 2.59695 1.79217 2 2.52855 2Z" fill="currentColor"/>
</g></symbol><symbol id="feedback" viewBox="0 0 16 12"><g fill="none">
<path fill-rule="evenodd" clip-rule="evenodd" d="M2.00033 0H14.0003C14.7367 0 15.3337 0.596954 15.3337 1.33333V10.6667C15.3337 11.403 14.7367 12 14.0003 12H2.00033C1.26395 12 0.666992 11.403 0.666992 10.6667V1.33333C0.666992 0.596954 1.26395 0 2.00033 0ZM2.00033 1.33333V10.6667H14.0003V1.33333H2.00033ZM4.66699 9.33333H6.00033V5.33333H4.66699V9.33333ZM8.66699 9.33333H7.33366V2.66667H8.66699V9.33333ZM10.0003 9.33333H11.3337V4.66667H10.0003V9.33333Z" fill="#69748C"/>
</g></symbol><symbol id="folder-btn" viewBox="0 0 16 16"><g fill="none">
<path fill-rule="evenodd" clip-rule="evenodd" d="M12.667 3.33333C13.4034 3.33333 14.0003 3.93029 14.0003 4.66667V5.33333C14.7367 5.33333 15.3337 5.93029 15.3337 6.66667L15.3178 6.81129L13.9976 12.7519C13.9537 13.4486 13.3747 14 12.667 14H2.00033C1.26395 14 0.666992 13.403 0.666992 12.6667V3.33333C0.666992 2.59695 1.26395 2 2.00033 2H6.00033C6.74699 2 7.22228 2.31697 7.69964 2.91924C7.71285 2.93589 7.74502 2.97735 7.78065 3.02327L7.78071 3.02335C7.83102 3.08818 7.88821 3.16188 7.90865 3.18721C7.92932 3.21284 7.94674 3.23403 7.96114 3.25154C8.01978 3.32285 8.02827 3.33319 8.00152 3.33333H12.667ZM12.667 4.66667V5.33333H3.33366C2.55592 5.33333 2.20713 5.74764 2.01974 6.50694L2.00033 6.59431V3.33333H6.00033C6.25649 3.33333 6.40501 3.43238 6.65472 3.74744C6.66257 3.75733 6.68504 3.7863 6.71305 3.8224L6.7131 3.82248L6.71316 3.82255C6.76674 3.89162 6.84051 3.98672 6.87088 4.02436C7.20612 4.43994 7.51799 4.66409 7.99676 4.66666L12.667 4.66667ZM12.667 12.6667H2.01659L3.31778 6.81129C3.3336 6.74753 3.34745 6.6997 3.35786 6.66667H13.9841L12.6829 12.522L12.667 12.6667Z" fill="currentColor"/>
</g></symbol><symbol id="link-btn" viewBox="0 0 16 16"><g fill="none">
<path d="M5.64323 7.52855L3.75738 9.4144C2.97664 10.1954 2.97664 11.4618 3.75738 12.2428C4.53835 13.0238 5.80474 13.0236 6.58581 12.2428L8.47165 10.357L9.41492 11.3002L7.52908 13.1861C6.22731 14.4876 4.11647 14.4871 2.8148 13.1854C1.51336 11.8837 1.51336 9.77351 2.8148 8.47182L4.70065 6.58597L5.64323 7.52855ZM8.47165 2.81497C9.77333 1.5133 11.8842 1.51276 13.1859 2.81428C14.4877 4.11602 14.4877 6.22749 13.1859 7.52924L11.3008 9.4144L10.3575 8.47113L12.2427 6.58597C13.0237 5.80492 13.0237 4.53859 12.2427 3.75754C11.4616 2.97673 10.1952 2.97657 9.41423 3.75754L7.52908 5.6427L6.5865 4.70012L8.47165 2.81497ZM10.8291 6.11434L6.11486 10.8286L5.17228 9.88603L9.88656 5.17176L10.8291 6.11434Z" fill="#2E2E54"/>
</g></symbol><symbol id="logo" viewBox="0 0 96 29"><g fill="none">
<path d="M19.2344 23.9023V29H-0.00390625C0.204427 27.0729 0.829427 25.25 1.87109 23.5312C2.91276 21.7995 4.97005 19.5078 8.04297 16.6562C10.5169 14.3516 12.0339 12.7891 12.5938 11.9688C13.349 10.8359 13.7266 9.71615 13.7266 8.60938C13.7266 7.38542 13.3945 6.44792 12.7305 5.79688C12.0794 5.13281 11.1745 4.80078 10.0156 4.80078C8.86979 4.80078 7.95833 5.14583 7.28125 5.83594C6.60417 6.52604 6.21354 7.67188 6.10938 9.27344L0.640625 8.72656C0.966146 5.70573 1.98828 3.53776 3.70703 2.22266C5.42578 0.907552 7.57422 0.25 10.1523 0.25C12.9779 0.25 15.1979 1.01172 16.8125 2.53516C18.4271 4.05859 19.2344 5.95312 19.2344 8.21875C19.2344 9.50781 19 10.7383 18.5312 11.9102C18.0755 13.069 17.3464 14.2865 16.3438 15.5625C15.6797 16.4089 14.4818 17.6263 12.75 19.2148C11.0182 20.8034 9.91797 21.8581 9.44922 22.3789C8.99349 22.8997 8.6224 23.4076 8.33594 23.9023H19.2344ZM28.2383 29L21.4023 0.367188H27.3203L31.6367 20.0352L36.8711 0.367188H43.7461L48.7656 20.3672L53.1602 0.367188H58.9805L52.0273 29H45.8945L40.1914 7.59375L34.5078 29H28.2383ZM61.7734 29V0.367188H67.5547V29H61.7734ZM73.1406 29V0.367188H78.7656L90.4844 19.4883V0.367188H95.8555V29H90.0547L78.5117 10.3281V29H73.1406Z" fill="#D13980"/>
</g></symbol><symbol id="more-btn" viewBox="0 0 16 16"><g fill="none">
<path fill-rule="evenodd" clip-rule="evenodd" d="M3.33333 9.33317C2.59695 9.33317 2 8.73622 2 7.99984C2 7.26346 2.59695 6.6665 3.33333 6.6665C4.06971 6.6665 4.66667 7.26346 4.66667 7.99984C4.66667 8.73622 4.06971 9.33317 3.33333 9.33317ZM8 9.33317C7.26362 9.33317 6.66667 8.73622 6.66667 7.99984C6.66667 7.26346 7.26362 6.6665 8 6.6665C8.73638 6.6665 9.33333 7.26346 9.33333 7.99984C9.33333 8.73622 8.73638 9.33317 8 9.33317ZM11.3333 7.99984C11.3333 8.73622 11.9303 9.33317 12.6667 9.33317C13.403 9.33317 14 8.73622 14 7.99984C14 7.26346 13.403 6.6665 12.6667 6.6665C11.9303 6.6665 11.3333 7.26346 11.3333 7.99984Z" fill="currentColor"/>
</g></symbol><symbol id="more-vertical-btn" viewBox="0 0 16 16"><g fill="none">
<path fill-rule="evenodd" clip-rule="evenodd" d="M6.66699 3.33333C6.66699 4.06971 7.26395 4.66667 8.00033 4.66667C8.73671 4.66667 9.33366 4.06971 9.33366 3.33333C9.33366 2.59695 8.73671 2 8.00033 2C7.26395 2 6.66699 2.59695 6.66699 3.33333ZM8.00033 9.33333C7.26395 9.33333 6.66699 8.73638 6.66699 8C6.66699 7.26362 7.26395 6.66667 8.00033 6.66667C8.73671 6.66667 9.33366 7.26362 9.33366 8C9.33366 8.73638 8.73671 9.33333 8.00033 9.33333ZM8.00033 14C7.26395 14 6.66699 13.403 6.66699 12.6667C6.66699 11.9303 7.26395 11.3333 8.00033 11.3333C8.73671 11.3333 9.33366 11.9303 9.33366 12.6667C9.33366 13.403 8.73671 14 8.00033 14Z" fill="#2E2E54"/>
</g></symbol><symbol id="msg-btn" viewBox="0 0 16 16"><g fill="none">
<path fill-rule="evenodd" clip-rule="evenodd" d="M3.99967 14.5363L8.05754 12.0002H13.333C14.0694 12.0002 14.6663 11.4032 14.6663 10.6668V2.66683C14.6663 1.93045 14.0694 1.3335 13.333 1.3335H2.66634C1.92996 1.3335 1.33301 1.93045 1.33301 2.66683V10.6668C1.33301 11.4032 1.92996 12.0002 2.66634 12.0002H3.99967V14.5363ZM7.67514 10.6668L5.33301 12.1307V10.6668H2.66634V2.66683H13.333V10.6668H7.67514ZM4.66634 8.66683V7.3335H9.33301V8.66683H4.66634ZM4.66634 4.66683V6.00016H10.6663V4.66683H4.66634Z" fill="#2E2E54"/>
</g></symbol><symbol id="pencil" viewBox="0 0 12 12"><g fill="none">
<path fill-rule="evenodd" clip-rule="evenodd" d="M8.21868 1C8.54604 1 8.85986 1.13071 9.08905 1.36171L10.6395 2.91216C10.8703 3.143 11 3.45608 11 3.78254C11 4.109 10.8703 4.42208 10.6395 4.65292L4.97875 10.3119C4.62951 10.7147 4.13445 10.9623 3.5673 11.0012H1V10.5012L1.00162 8.39365C1.04422 7.86642 1.28933 7.37617 1.66325 7.04671L7.34769 1.36231C7.5782 1.13041 7.89168 1 8.21868 1ZM3.53199 10.0024C3.7991 9.9835 4.04774 9.85919 4.2474 9.63081L8.02835 5.84986L6.15116 3.9726L2.34805 7.77479C2.14548 7.95396 2.02015 8.20462 2 8.43391V10.0015L3.53199 10.0024ZM6.85835 3.26558L8.73546 5.14275L9.9324 3.94581C9.9757 3.90251 10 3.84378 10 3.78254C10 3.7213 9.9757 3.66257 9.9324 3.61927L8.38056 2.06743C8.33774 2.02427 8.27947 2 8.21868 2C8.15788 2 8.09961 2.02427 8.05679 2.06743L6.85835 3.26558Z" fill="white"/>
</g></symbol><symbol id="quiz-btn" viewBox="0 0 16 16"><g fill="none">
<g clip-path="url(#clip0_2003_2866)">
<path d="M14.6458 5.3335H8.6875C8.50516 5.3335 8.3303 5.40373 8.20136 5.52876C8.07243 5.65378 8 5.82335 8 6.00016C8 6.17697 8.07243 6.34654 8.20136 6.47157C8.3303 6.59659 8.50516 6.66683 8.6875 6.66683H14.6458C14.8282 6.66683 15.003 6.59659 15.132 6.47157C15.2609 6.34654 15.3333 6.17697 15.3333 6.00016C15.3333 5.82335 15.2609 5.65378 15.132 5.52876C15.003 5.40373 14.8282 5.3335 14.6458 5.3335Z" fill="currentColor"/>
<path d="M14.613 1.3335H10.053C9.86205 1.3335 9.67892 1.40373 9.54389 1.52876C9.40887 1.65378 9.33301 1.82335 9.33301 2.00016C9.33301 2.17697 9.40887 2.34654 9.54389 2.47157C9.67892 2.59659 9.86205 2.66683 10.053 2.66683H14.613C14.804 2.66683 14.9871 2.59659 15.1221 2.47157C15.2572 2.34654 15.333 2.17697 15.333 2.00016C15.333 1.82335 15.2572 1.65378 15.1221 1.52876C14.9871 1.40373 14.804 1.3335 14.613 1.3335Z" fill="currentColor"/>
<path d="M7.29065 9.3335H1.37667C1.18845 9.3335 1.00794 9.40373 0.874852 9.52876C0.741761 9.65378 0.666992 9.82335 0.666992 10.0002C0.666992 10.177 0.741761 10.3465 0.874852 10.4716C1.00794 10.5966 1.18845 10.6668 1.37667 10.6668H7.29065C7.47887 10.6668 7.65938 10.5966 7.79247 10.4716C7.92556 10.3465 8.00033 10.177 8.00033 10.0002C8.00033 9.82335 7.92556 9.65378 7.79247 9.52876C7.65938 9.40373 7.47887 9.3335 7.29065 9.3335Z" fill="currentColor"/>
<path d="M7.29065 14.6668C7.47887 14.6668 7.65938 14.5966 7.79247 14.4716C7.92556 14.3465 8.00033 14.177 8.00033 14.0002C8.00033 13.8234 7.92556 13.6538 7.79247 13.5288C7.65938 13.4037 7.47887 13.3335 7.29065 13.3335H1.37667C1.18845 13.3335 1.00794 13.4037 0.874852 13.5288C0.741761 13.6538 0.666992 13.8234 0.666992 14.0002C0.666992 14.177 0.741761 14.3465 0.874852 14.4716C1.00794 14.5966 1.18845 14.6668 1.37667 14.6668H7.29065Z" fill="currentColor"/>
<path d="M10.1088 14.3322C10.1676 14.4237 10.2462 14.5009 10.3388 14.5581C10.4315 14.6153 10.5358 14.651 10.6441 14.6627C10.7524 14.6743 10.862 14.6615 10.9647 14.6253C11.0674 14.589 11.1606 14.5303 11.2376 14.4533L12.6649 13.0264L14.0922 14.4509C14.1678 14.5266 14.2591 14.5848 14.3598 14.6212C14.4604 14.6577 14.5679 14.6716 14.6745 14.6618C14.7811 14.6521 14.8843 14.6191 14.9767 14.565C15.069 14.511 15.1483 14.4372 15.2089 14.3491C15.3046 14.1985 15.3446 14.0192 15.322 13.8423C15.2994 13.6654 15.2156 13.5019 15.0851 13.3801L13.6966 11.9992L15.1045 10.5941C15.2276 10.4767 15.3063 10.3206 15.3276 10.152C15.3488 9.98344 15.3112 9.81273 15.221 9.66861C15.1622 9.57707 15.0836 9.49986 14.991 9.44266C14.8984 9.38546 14.794 9.34973 14.6857 9.33811C14.5774 9.32648 14.4679 9.33926 14.3651 9.3755C14.2624 9.41173 14.1692 9.4705 14.0922 9.54748L12.6649 10.972L11.2376 9.54748C11.162 9.47176 11.0707 9.41359 10.97 9.37713C10.8694 9.34066 10.7619 9.32679 10.6553 9.33651C10.5487 9.34622 10.4455 9.37928 10.3531 9.43334C10.2608 9.48739 10.1815 9.56111 10.1209 9.64923C10.0252 9.79985 9.98524 9.9791 10.0078 10.156C10.0304 10.3329 10.1142 10.4964 10.2447 10.6183L11.6357 11.9992L10.2375 13.4043C10.1119 13.5203 10.0304 13.6761 10.007 13.8453C9.98353 14.0144 10.0195 14.1865 10.1088 14.3322Z" fill="currentColor"/>
<path d="M0.865799 4.74408L2.17197 6.22356C2.4229 6.5074 2.76302 6.66683 3.11765 6.66683C3.47228 6.66683 3.81241 6.5074 4.06333 6.22356L7.0979 2.78636C7.17067 2.70955 7.22905 2.61692 7.26953 2.514C7.31002 2.41108 7.33179 2.29998 7.33354 2.18732C7.3353 2.07466 7.317 1.96276 7.27975 1.85829C7.24249 1.75382 7.18704 1.65891 7.1167 1.57924C7.04636 1.49957 6.96258 1.43676 6.87034 1.39456C6.77811 1.35236 6.67931 1.33164 6.57985 1.33363C6.48039 1.33561 6.3823 1.36027 6.29144 1.40613C6.20058 1.45199 6.1188 1.5181 6.05098 1.60054L3.11765 4.92307L1.91271 3.55826C1.77229 3.41005 1.58657 3.32937 1.39467 3.3332C1.20276 3.33704 1.01967 3.42509 0.88395 3.57882C0.748233 3.73254 0.670493 3.93993 0.667108 4.1573C0.663722 4.37466 0.734954 4.58503 0.865799 4.74408Z" fill="currentColor"/>
</g>

</g></symbol><symbol id="star" viewBox="0 0 16 15"><g fill="none">
<path d="M8 0L10.5863 4.44033L15.6085 5.52786L12.1846 9.35967L12.7023 14.4721L8 12.4L3.29772 14.4721L3.81535 9.35967L0.391548 5.52786L5.41374 4.44033L8 0Z" fill="#D2D4D8"/>
</g></symbol><symbol id="thumbs-up" viewBox="0 0 12 12"><g fill="none">
<path fill-rule="evenodd" clip-rule="evenodd" d="M11 5.99951C11 5.15827 10.4348 4.49951 9.5 4.49951H7.96349L7.9774 4.46165C7.9913 4.42406 8.03046 4.32083 8.0685 4.22057L8.06855 4.22043L8.06873 4.21997C8.10231 4.13145 8.13497 4.04537 8.14854 4.00896C8.24361 3.75379 8.31298 3.54819 8.36911 3.34458C8.45395 3.03683 8.5 2.75957 8.5 2.49951C8.5 1.76351 8.04593 1.30637 7.37414 1.11075C7.07114 1.02253 6.8074 0.999466 6.5 0.999512H6.26025L6.11014 1.18645C5.94056 1.39763 5.6075 1.77821 5.22352 2.21699L5.2235 2.21701C4.51513 3.02647 3.63345 4.03396 3.28518 4.54121C3.19481 4.51437 3.09909 4.49996 3 4.49996H2C1.44772 4.49996 1 4.94767 1 5.49996V9.99996C1 10.5522 1.44772 11 2 11H3C3.34356 11 3.64666 10.8267 3.82668 10.5628C3.97837 10.6609 4.14761 10.7428 4.33156 10.8086C4.75272 10.9593 5.17042 11.0056 5.5172 10.9992L9 10.9995C10.3776 10.9995 11 8.9713 11 5.99951ZM4.66844 9.86705C4.22598 9.70875 4 9.45063 4 8.99951V5.49996V5.49951C4 5.37941 4.02222 5.27307 4.07086 5.1595C4.15823 4.95551 4.95097 4.05108 5.70234 3.19385L5.7024 3.19378L5.70249 3.19367C6.09023 2.75131 6.46693 2.32153 6.72998 2.00708C6.8557 2.01651 6.97419 2.03583 7.09457 2.07088C7.38109 2.15431 7.5 2.27402 7.5 2.49951C7.5 2.6578 7.46797 2.85067 7.40507 3.07881C7.35807 3.2493 7.29721 3.4297 7.21146 3.65984C7.19932 3.69244 7.16905 3.77222 7.13683 3.85713L7.13663 3.85765L7.13657 3.85783L7.13646 3.8581C7.09717 3.96167 7.05507 4.07264 7.03948 4.11479C6.97446 4.2906 6.93163 4.42004 6.90233 4.53767C6.77777 5.03769 6.90273 5.49951 7.5 5.49951H9.5C9.84561 5.49951 10 5.67946 10 5.99951C10 8.39488 9.50756 9.99951 9 9.99951H5.5L5.48153 9.99982C5.26269 10.0037 4.95531 9.96969 4.66844 9.86705ZM2 9.99996V5.49996H3V9.99996H2Z" fill="white"/>
</g></symbol><symbol id="trash" viewBox="0 0 16 16"><g fill="none">
<path fill-rule="evenodd" clip-rule="evenodd" d="M5.99967 0.666504H9.99967C10.7361 0.666504 11.333 1.26346 11.333 1.99984V2.6665H13.333C14.0694 2.6665 14.6663 3.26346 14.6663 3.99984V5.33317C14.6663 6.06955 14.0694 6.6665 13.333 6.6665H13.2796L12.6663 13.9998C12.6663 14.7362 12.0694 15.3332 11.333 15.3332H4.66634C3.92996 15.3332 3.33301 14.7362 3.33531 14.0552L2.71959 6.6665H2.66634C1.92996 6.6665 1.33301 6.06955 1.33301 5.33317V3.99984C1.33301 3.26346 1.92996 2.6665 2.66634 2.6665H4.66634V1.99984C4.66634 1.26346 5.26329 0.666504 5.99967 0.666504ZM2.66634 3.99984L4.66634 3.99984H11.333L13.333 3.99984V5.33317H2.66634V3.99984ZM4.05733 6.6665H11.9418L11.3353 13.9445L11.333 13.9998H4.66634L4.05733 6.6665ZM9.99967 1.99984V2.6665H5.99967V1.99984H9.99967Z" fill="currentColor"/>
</g></symbol><symbol id="unmodereted-btn" viewBox="0 0 14 14"><g fill="none">
<path fill-rule="evenodd" clip-rule="evenodd" d="M6.99967 13.6668C8.14938 13.6668 9.25769 13.3748 10.2393 12.828L13.0628 13.0633L12.8275 10.2398C13.3743 9.25817 13.6663 8.14987 13.6663 7.00016C13.6663 3.31826 10.6816 0.333496 6.99967 0.333496C3.31778 0.333496 0.333008 3.31826 0.333008 7.00016C0.333008 10.6821 3.31778 13.6668 6.99967 13.6668ZM9.743 11.5749L9.92741 11.4641L11.6032 11.6037L11.4636 9.9279L11.5744 9.74349C12.0684 8.92178 12.333 7.98119 12.333 7.00016C12.333 4.05464 9.94519 1.66683 6.99967 1.66683C4.05416 1.66683 1.66634 4.05464 1.66634 7.00016C1.66634 9.94568 4.05416 12.3335 6.99967 12.3335C7.9807 12.3335 8.92129 12.0688 9.743 11.5749ZM6.99989 10.3324C7.3682 10.3324 7.66678 10.0339 7.66678 9.66573C7.66678 9.29754 7.3682 8.99906 6.99989 8.99906C6.63158 8.99906 6.33301 9.29754 6.33301 9.66573C6.33301 10.0339 6.63158 10.3324 6.99989 10.3324ZM6.33301 8.3335H7.66634V7.66683C7.66634 7.66846 7.66949 7.66499 7.67663 7.65712C7.69412 7.63785 7.73558 7.59216 7.81333 7.53048C7.88011 7.4775 7.90083 7.46378 8.06955 7.35681C8.64371 6.99283 8.99967 6.35987 8.99967 5.66683C8.99967 4.56226 8.10424 3.66683 6.99967 3.66683C5.8951 3.66683 4.99967 4.56226 4.99967 5.66683H6.33301C6.33301 5.29864 6.63148 5.00016 6.99967 5.00016C7.36786 5.00016 7.66634 5.29864 7.66634 5.66683C7.66634 5.89837 7.54803 6.10874 7.35565 6.2307C7.13978 6.36755 7.10395 6.3913 6.98467 6.48593C6.58817 6.80048 6.33301 7.17529 6.33301 7.66683V8.3335Z" fill="currentColor"/>
</g></symbol><symbol id="user" viewBox="0 0 16 16"><g fill="none">
<path fill-rule="evenodd" clip-rule="evenodd" d="M8.00033 15.3332C3.95024 15.3332 0.666992 12.0499 0.666992 7.99984C0.666992 3.94975 3.95024 0.666504 8.00033 0.666504C12.0504 0.666504 15.3337 3.94975 15.3337 7.99984C15.3337 12.0499 12.0504 15.3332 8.00033 15.3332ZM12.9333 11.4163C13.6061 10.4467 14.0003 9.26932 14.0003 7.99984C14.0003 4.68613 11.314 1.99984 8.00033 1.99984C4.68662 1.99984 2.00033 4.68613 2.00033 7.99984C2.00033 9.26932 2.39458 10.4467 3.06733 11.4163C3.81763 10.4252 5.58073 9.99984 8.00033 9.99984C10.4199 9.99984 12.183 10.4252 12.9333 11.4163ZM11.9768 12.493C11.7817 11.7914 10.3799 11.3332 8.00033 11.3332C5.62074 11.3332 4.21899 11.7914 4.02387 12.493C5.08253 13.4306 6.47495 13.9998 8.00033 13.9998C9.5257 13.9998 10.9181 13.4306 11.9768 12.493ZM8.00033 3.99984C6.38639 3.99984 5.33366 5.17034 5.33366 6.6665C5.33366 8.95142 6.50757 9.99984 8.00033 9.99984C9.47905 9.99984 10.667 8.98625 10.667 6.79984C10.667 5.28089 9.60979 3.99984 8.00033 3.99984ZM6.66699 6.6665C6.66699 8.17934 7.21247 8.6665 8.00033 8.6665C8.78546 8.6665 9.33366 8.19877 9.33366 6.79984C9.33366 5.96678 8.81076 5.33317 8.00033 5.33317C7.15615 5.33317 6.66699 5.87705 6.66699 6.6665Z" fill="currentColor"/>
</g></symbol></svg>